{"title":"Bilals.TYKHO.MOON.1996.DVDrip.Divx[Fre] [Atilla82]","uid":7237675,"size":732101390,"categoryP":"video","categoryS":"movies","magnet":"?xt=urn:btih:e60426b84babfb3f49378e6d5a3d69f747517d56&amp;dn=Bilals.TYKHO.MOON.1996.DVDrip.Divx%5BFre%5D+%5BAtilla82%5D&amp;tr=udp%3A%2F%2Ftracker.openbittorrent.com%3A80&amp;tr=udp%3A%2F%2Fopen.demonii.com%3A1337&amp;tr=udp%3A%2F%2Ftracker.coppersurfer.tk%3A6969&amp;tr=udp%3A%2F%2Fexodus.desync.com%3A6969","seeders":6,"leechers":0,"uploader":"Atilla82","files":8,"time":1336044863,"description":"ENKI BILALTykho Moon (1996)\n\n &lt;a href=&quot;\nhttp://www.imdb.com/title/tt0118003/&quot; rel=&quot;nofollow&quot; target=&quot;_NEW&quot;&gt;\nhttp://www.imdb.com/title/tt0118003/&lt;/a&gt;\n\n\nThe McBee family has erected a government over a future 'colony', that looks like a run-down Paris divided into sectors by the Berlin Wall. All male family members suffer from a mysterious disease and are in urgent need of organ transplants. The perfect donor, Tykho Moon, probably has been killed in a fire, but according to rumours he's still alive. Although assassins stalk the family members, the McBees start a hunt for Tykho. Trying to escape the dragnet, Alex, a sculptor, meets Lena, a killer posing as a whore.\n\n\nsubtitles:  English, Spanish, Croatian, Polish, Turkish (.srt)\n\n\n\nscreenshots included in torrent\n\n\n\n\n\n\nGeneral\nComplete name : Bilals.TYKHO.MOON.1996.DVDrip.Divx[Fre].avi\nFormat : AVI\nFormat/Info : Audio Video Interleave\nFile size : 698 MiB\nDuration : 1h 43mn\nOverall bit rate : 943 Kbps\nMovie name : Bilal's TYKHO MOON (1996) DVDRip French\nDirector : Atilla82\nWriting application : VirtualDubMod 1.5.10.2 (build 2540/release)\nWriting library : VirtualDubMod build 2540/release\nVideo\nID : 0\nFormat : MPEG-4 Visual\nFormat settings, BVOP : 1\nFormat settings, QPel : No\nFormat settings, GMC : No warppoints\nFormat settings, Matrix : Default (H.263)\nMuxing mode : Packed bitstream\nCodec ID : DX50\nCodec ID/Hint : DivX 5\nDuration : 1h 43mn\nBit rate : 742 Kbps\nWidth : 512 pixels\nHeight : 288 pixels\nDisplay aspect ratio : 16:9\nFrame rate : 25.000 fps\nColor space : YUV\nChroma subsampling : 4:2:0\nBit depth : 8 bits\nScan type : Progressive\nCompression mode : Lossy\nBits/(Pixel*Frame) : 0.201\nStream size : 549 MiB (79%)\nWriting library : DivX 5.0.3 (UTC 2003-01-24)\nAudio\nID : 1\nFormat : MPEG Audio\nFormat version : Version 1\nFormat profile : Layer 3\nMode : Joint stereo\nMode extension : MS Stereo\nCodec ID : 55\nCodec ID/Hint : MP3\nDuration : 1h 43mn\nBit rate mode : Constant\nBit rate : 192 Kbps\nChannel(s) : 2 channels\nSampling rate : 48.0 KHz\nCompression mode : Lossy\nStream size : 142 MiB (20%)\nAlignment : Split accross interleaves\nInterleave, duration : 40 ms (1.00 video frame)\nInterleave, preload duration : 500 ms\n\n","torrent":{"xt":"urn:btih:e60426b84babfb3f49378e6d5a3d69f747517d56","amp;dn":"Bilals.TYKHO.MOON.1996.DVDrip.Divx%5BFre%5D+%5BAtilla82%5D","amp;tr":["udp%3A%2F%2Ftracker.openbittorrent.com%3A80","udp%3A%2F%2Fopen.demonii.com%3A1337","udp%3A%2F%2Ftracker.coppersurfer.tk%3A6969","udp%3A%2F%2Fexodus.desync.com%3A6969"],"infoHash":"e60426b84babfb3f49378e6d5a3d69f747517d56","infoHashBuffer":{"type":"Buffer","data":[230,4,38,184,75,171,251,63,73,55,142,109,90,61,105,247,71,81,125,86]},"announce":[],"urlList":[]}}